<mxfile host="app.diagrams.net" modified="2021-09-08T13:51:12.965Z" agent="5.0 (Windows NT 10.0; Win64; x64) AppleWebKit/537.36 (KHTML, like Gecko) Chrome/90.0.4430.93 Safari/537.36" etag="Q3GkgbifdSRo5qoyXeob" version="15.1.0" type="github">
  <diagram id="f31Dj7-f4is21BzygFTr" name="Page-1">
    <mxGraphModel dx="781" dy="477" grid="1" gridSize="10" guides="1" tooltips="1" connect="1" arrows="1" fold="1" page="1" pageScale="1" pageWidth="827" pageHeight="1169" math="0" shadow="0">
      <root>
        <mxCell id="0" />
        <mxCell id="1" parent="0" />
        <mxCell id="bX-iEJlh-cpht0Hqj8i8-3" value="" style="edgeStyle=orthogonalEdgeStyle;rounded=0;orthogonalLoop=1;jettySize=auto;html=1;" edge="1" parent="1" source="bX-iEJlh-cpht0Hqj8i8-1" target="bX-iEJlh-cpht0Hqj8i8-2">
          <mxGeometry relative="1" as="geometry" />
        </mxCell>
        <mxCell id="bX-iEJlh-cpht0Hqj8i8-1" value="OkHttpClient.Builder" style="rounded=0;whiteSpace=wrap;html=1;" vertex="1" parent="1">
          <mxGeometry x="130" y="80" width="120" height="40" as="geometry" />
        </mxCell>
        <mxCell id="bX-iEJlh-cpht0Hqj8i8-6" value="" style="edgeStyle=orthogonalEdgeStyle;rounded=0;orthogonalLoop=1;jettySize=auto;html=1;" edge="1" parent="1" source="bX-iEJlh-cpht0Hqj8i8-2" target="bX-iEJlh-cpht0Hqj8i8-5">
          <mxGeometry relative="1" as="geometry" />
        </mxCell>
        <mxCell id="bX-iEJlh-cpht0Hqj8i8-2" value="OkHttpClient" style="rounded=0;whiteSpace=wrap;html=1;" vertex="1" parent="1">
          <mxGeometry x="130" y="160" width="120" height="40" as="geometry" />
        </mxCell>
        <mxCell id="bX-iEJlh-cpht0Hqj8i8-4" value="build()" style="text;html=1;align=center;verticalAlign=middle;resizable=0;points=[];autosize=1;strokeColor=none;fillColor=none;" vertex="1" parent="1">
          <mxGeometry x="190" y="130" width="50" height="20" as="geometry" />
        </mxCell>
        <mxCell id="bX-iEJlh-cpht0Hqj8i8-5" value="OkHttpClient" style="rounded=0;whiteSpace=wrap;html=1;" vertex="1" parent="1">
          <mxGeometry x="130" y="240" width="120" height="40" as="geometry" />
        </mxCell>
        <mxCell id="bX-iEJlh-cpht0Hqj8i8-7" value="newCall()" style="text;html=1;align=center;verticalAlign=middle;resizable=0;points=[];autosize=1;strokeColor=none;fillColor=none;" vertex="1" parent="1">
          <mxGeometry x="190" y="210" width="70" height="20" as="geometry" />
        </mxCell>
      </root>
    </mxGraphModel>
  </diagram>
</mxfile>
